<svg xmlns="http://www.w3.org/2000/svg" width="53" height="47" viewBox="0 0 53 47">
  <defs>
    <style>
      .cls-1 {
        fill: #db3f7c;
        fill-rule: evenodd;
      }
    </style>
  </defs>
  <path id="Forma_1" data-name="Forma 1" class="cls-1" d="M1101.06,1578.58a1.356,1.356,0,0,0-.47-0.68,11.341,11.341,0,0,0-5.85-2.47,6.929,6.929,0,0,0-.89-0.04,8.576,8.576,0,0,0-.95.04,11.516,11.516,0,0,0-5.63,2.47,1.356,1.356,0,0,0-.47.68,23.145,23.145,0,0,0-.76,9.46,57.761,57.761,0,0,0,2.1,9.15,1.356,1.356,0,0,0,.47.68,9.03,9.03,0,0,0,10.63,0,1.3,1.3,0,0,0,.47-0.68,56.758,56.758,0,0,0,2.11-9.15A23.145,23.145,0,0,0,1101.06,1578.58Zm-5.96,5.44a1.17,1.17,0,1,1-2.34,0v-4.86a1.17,1.17,0,1,1,2.34,0v4.86Zm-10.11,12.45h-2.11l-1.75-5.9h3.57c-0.12-.63-0.21-1.26-0.29-1.9a25.926,25.926,0,0,1-.07-5.56H1053.1v-26.04h42.32v16.72a11.723,11.723,0,0,1,4.09,1.19v-19.95a2.034,2.034,0,0,0-2.04-2.03h-46.42a2.042,2.042,0,0,0-2.05,2.03v33.51a2.042,2.042,0,0,0,2.05,2.03h16.33l-1.74,5.9h-2.12a0.971,0.971,0,0,0-.97.97v1.59a0.965,0.965,0,0,0,.97.97h21.47a0.973,0.973,0,0,0,.98-0.97v-1.59A0.98,0.98,0,0,0,1084.99,1596.47Z" transform="translate(-1049 -1553)"/>
</svg>
