<svg xmlns="http://www.w3.org/2000/svg" width="37" height="44" viewBox="0 0 37 44">
  <defs>
    <style>
      .cls-1 {
        fill: #e13f79;
        fill-rule: evenodd;
      }
    </style>
  </defs>
  <path id="Forma_1_copy" data-name="Forma 1 copy" class="cls-1" d="M1310.17,1592.13h-33.33a1.813,1.813,0,0,0-1.84,1.76v2.35a1.807,1.807,0,0,0,1.84,1.76h33.31a1.816,1.816,0,0,0,1.85-1.76v-2.35A1.785,1.785,0,0,0,1310.17,1592.13Zm-17.95-3.14a1.885,1.885,0,0,0,2.6,0l12.62-12.03a1.722,1.722,0,0,0,0-2.49l-1.75-1.67a1.925,1.925,0,0,0-2.61,0l-6.49,6.19v-23.23a1.816,1.816,0,0,0-1.85-1.76h-2.46a1.794,1.794,0,0,0-1.84,1.76V1579l-6.5-6.19a1.925,1.925,0,0,0-2.61,0l-1.75,1.66a1.722,1.722,0,0,0,0,2.49Z" transform="translate(-1275 -1554)"/>
</svg>
