<svg xmlns="http://www.w3.org/2000/svg" width="28" height="44" viewBox="0 0 28 44">
  <defs>
    <style>
      .cls-1 {
        fill: #db3f7c;
        fill-rule: evenodd;
      }
    </style>
  </defs>
  <path id="Forma_1_copy_2" data-name="Forma 1 copy 2" class="cls-1" d="M1523.7,1597.99s4.31,0,4.31-3.99v-36c0-4-4.31-4-4.31-4h-19.39s-4.31,0-4.31,4v36c0,3.99,4.31,3.99,4.31,3.99h19.39Zm-9.69-1.66a2,2,0,1,1,2.15-2A2.083,2.083,0,0,1,1514.01,1596.33Zm-5.39-39.89a0.454,0.454,0,0,1,.48-0.44h9.81a0.46,0.46,0,0,1,.48.44v0.12a0.451,0.451,0,0,1-.47.44h-9.82a0.467,0.467,0,0,1-.48-0.44v-0.12Zm-6.46,2.55h23.69v31.95h-23.69v-31.95Z" transform="translate(-1500 -1554)"/>
</svg>
